<?xml version="1.0" encoding="utf-8"?>
<!-- Generator: Adobe Illustrator 21.0.0, SVG Export Plug-In . SVG Version: 6.00 Build 0)  -->
<svg version="1.1" id="Layer_1" xmlns="http://www.w3.org/2000/svg" xmlns:xlink="http://www.w3.org/1999/xlink" x="0px" y="0px"
	 viewBox="0 0 1400 980" style="enable-background:new 0 0 1400 980;" xml:space="preserve">
<style type="text/css">
	.st0{fill:url(#SVGID_1_);}
	.st1{fill:url(#SVGID_2_);}
	.st2{fill:#7DA042;}
	.st3{fill:#BF5926;}
	.st4{fill:#96BC5C;}
	.st5{fill:#F29A2B;}
	.st6{fill:#FFFFFF;}
	.st7{fill:#CB1B2E;}
	.st8{fill:#E5E5E5;}
	.st9{opacity:0.64;fill:#95A0A0;}
	.st10{fill:#95A0A0;}
	.st11{fill:#D8D8D8;}
	.st12{fill:#D4ED6E;}
	.st13{fill:#3AAFBF;}
	.st14{fill:#3BC0D3;}
	.st15{fill:#4EDAE5;}
	.st16{fill:#FFE239;}
</style>
<g>
	<radialGradient id="SVGID_1_" cx="700" cy="490" r="777.3999" gradientUnits="userSpaceOnUse">
		<stop  offset="0" style="stop-color:#5DEEF9"/>
		<stop  offset="0.2166" style="stop-color:#5BE9F5"/>
		<stop  offset="0.4552" style="stop-color:#55DCE9"/>
		<stop  offset="0.7043" style="stop-color:#4BC6D4"/>
		<stop  offset="0.9591" style="stop-color:#3EA8B8"/>
		<stop  offset="1" style="stop-color:#3BA2B3"/>
	</radialGradient>
	<rect class="st0" width="1400" height="980"/>
	<radialGradient id="SVGID_2_" cx="703.8787" cy="475.7499" r="390.4327" gradientUnits="userSpaceOnUse">
		<stop  offset="0" style="stop-color:#FFFFFF"/>
		<stop  offset="0.9056" style="stop-color:#FFFFFF;stop-opacity:9.435201e-02"/>
		<stop  offset="1" style="stop-color:#FFFFFF;stop-opacity:0"/>
	</radialGradient>
	<path class="st1" d="M1145,475.7c0,75.7-19.1,146.9-52.7,209.2c-1.6,3-3.2,5.9-4.9,8.8c-6.6,11.6-13.8,22.9-21.4,33.9
		c-1.3,1.9-2.7,3.8-4,5.7C982,844.5,851.4,916.9,703.9,916.9c-213.2,0-391-151.2-432.2-352.2c-5.9-28.7-9-58.4-9-88.9
		c0-16.6,0.9-33,2.7-49.1l0-0.1c3.6-32.9,10.9-64.7,21.4-95c59.7-172.8,223.9-296.9,417-296.9c11.7,0,23.3,0.5,34.7,1.4
		c178.1,13.9,326.6,133.5,382.5,296.2c5.9,17,10.7,34.4,14.4,52.3c0.1,0.6,0.3,1.1,0.4,1.7v0c1.4,6.6,2.6,13.3,3.6,20
		C1143.1,428.8,1145,452.1,1145,475.7z"/>
	<g>
		<g>
			<path id="XMLID_109_" class="st2" d="M1044.6,739.8c0,0,23.1,27.5,24.2,28.9l16.6-1l-11.8,10c0,0,9.4,10.4,9.9,21.3l9.3,3.2
				l-7.5,7c0,0,5.9,29.1-0.1,43.8c0,0,33.9-24.7,20.6-72.8C1105.8,780.1,1095.3,734.7,1044.6,739.8z"/>
		</g>
		<polygon class="st3" points="928,672.4 951.1,641.7 1052.2,733.5 1044.1,744.2 		"/>
		<path id="XMLID_107_" class="st4" d="M1044.6,737.8c0,0,52.9-10.2,54.3-10.8l13,7.5l-5.5-12.9c0,0,11.8-4.6,16.7-13.2l8.8,1.2
			l-3.3-8.7c0,0,16.6-21.2,17.7-35.5c0,0,0.8,1.6,1.7,4.5c13.1,40.4-17.8,86.8-60.2,84C1076.2,753.1,1060.9,744.5,1044.6,737.8z"/>
		<path id="XMLID_1_" class="st4" d="M1046.3,735.3c0,0,0.4,51.2,0,52.6l9.4,10.7l-13-2.7c0,0-2.1,11.8-9.2,18l2.7,8l-8.7-1.4
			c0,0-16.6,19.4-29.8,23.1c0,0,1.7,0.4,4.5,0.7c40.1,4.7,77.6-32.7,67-71.7C1066.4,761.8,1055.5,749.2,1046.3,735.3z"/>
		<path class="st5" d="M888.8,697.5c16.8,5.5,43.4-8.7,63.1-34.9c19.8-26.3,26.1-55.7,16.1-70.3L888.8,697.5z"/>
		<path id="XMLID_106_" class="st2" d="M1044.4,737.6c0,0,17.6-27.4,18.4-28.7l15-1l-11.7-7.7c0,0,7.3-10.4,6.5-20.2l8-3.9l-7.6-5.4
			c0,0,2-26.8-5-39.3c0,0,33.2,18.3,26.8,63.1C1094.8,694.5,1090.5,736.5,1044.4,737.6z"/>
		<path id="XMLID_2_" class="st2" d="M1046.6,736.6c0,0-26.1,19.4-27.4,20.3l0,15l-8.4-11.2c0,0-9.9,7.9-19.8,7.9l-3.4,8.2l-5.9-7.2
			c0,0-26.6,3.8-39.6-2.4c0,0,20.5,31.9,64.7,22.5C1006.9,789.7,1048.5,782.7,1046.6,736.6z"/>
	</g>
	
		<rect x="520.2" y="716.5" transform="matrix(-0.8808 -0.4734 0.4734 -0.8808 684.1542 1801.6764)" class="st5" width="97.2" height="196.4"/>
	
		<rect x="551.7" y="800.4" transform="matrix(0.4734 -0.8808 0.8808 0.4734 -451.8961 931.6183)" class="st6" width="3.1" height="86.6"/>
	
		<rect x="583.8" y="740.7" transform="matrix(0.4734 -0.8808 0.8808 0.4734 -382.3106 928.4384)" class="st6" width="3.1" height="86.6"/>
	
		<rect x="474.6" y="900.2" transform="matrix(-0.8808 -0.4734 0.4734 -0.8808 544.5598 1954.6405)" class="st7" width="87.4" height="17.2"/>
	<g>
		
			<rect x="544.1" y="882.5" transform="matrix(0.4734 -0.8808 0.8808 0.4734 -483.8347 966.2662)" class="st6" width="44.3" height="10.6"/>
		
			<rect x="525.1" y="872.3" transform="matrix(0.4734 -0.8808 0.8808 0.4734 -484.8437 944.1868)" class="st6" width="44.3" height="10.6"/>
		
			<rect x="506.2" y="862.1" transform="matrix(0.4734 -0.8808 0.8808 0.4734 -485.8527 922.1073)" class="st6" width="44.3" height="10.6"/>
		
			<rect x="487.2" y="851.9" transform="matrix(0.4734 -0.8808 0.8808 0.4734 -486.8617 900.0279)" class="st6" width="44.3" height="10.6"/>
	</g>
	<g>
		
			<rect x="576" y="823.1" transform="matrix(0.4734 -0.8808 0.8808 0.4734 -414.7324 963.1083)" class="st6" width="44.3" height="10.6"/>
		
			<rect x="557" y="812.9" transform="matrix(0.4734 -0.8808 0.8808 0.4734 -415.7414 941.0289)" class="st6" width="44.3" height="10.6"/>
		
			<rect x="538.1" y="802.7" transform="matrix(0.4734 -0.8808 0.8808 0.4734 -416.7504 918.9494)" class="st6" width="44.3" height="10.6"/>
		
			<rect x="519.1" y="792.5" transform="matrix(0.4734 -0.8808 0.8808 0.4734 -417.7594 896.87)" class="st6" width="44.3" height="10.6"/>
	</g>
	<g>
		
			<rect x="607.3" y="765" transform="matrix(0.4734 -0.8808 0.8808 0.4734 -347.0798 960.0166)" class="st6" width="44.3" height="10.6"/>
		
			<rect x="588.3" y="754.8" transform="matrix(0.4734 -0.8808 0.8808 0.4734 -348.0888 937.9372)" class="st6" width="44.3" height="10.6"/>
		
			<rect x="569.3" y="744.6" transform="matrix(0.4734 -0.8808 0.8808 0.4734 -349.0978 915.8578)" class="st6" width="44.3" height="10.6"/>
		
			<rect x="550.3" y="734.4" transform="matrix(0.4734 -0.8808 0.8808 0.4734 -350.1068 893.7783)" class="st6" width="44.3" height="10.6"/>
	</g>
	<g>
		
			<rect x="410.7" y="654" transform="matrix(-0.7926 -0.6097 0.6097 -0.7926 372.6973 1624.2101)" class="st7" width="103.8" height="189.5"/>
		
			<rect x="355.6" y="821.9" transform="matrix(-0.7926 -0.6097 0.6097 -0.7926 208.4626 1733.5093)" class="st5" width="86.9" height="18.9"/>
		<g>
			<g>
				
					<rect x="439.4" y="827.3" transform="matrix(0.6097 -0.7926 0.7926 0.6097 -486.3245 677.1341)" class="st6" width="10.1" height="10.3"/>
				
					<rect x="419.9" y="812.2" transform="matrix(0.6097 -0.7926 0.7926 0.6097 -482.0373 655.7871)" class="st6" width="10.1" height="10.3"/>
				
					<rect x="400.3" y="797.2" transform="matrix(0.6097 -0.7926 0.7926 0.6097 -477.7501 634.4401)" class="st6" width="10.1" height="10.3"/>
				
					<rect x="380.8" y="782.2" transform="matrix(0.6097 -0.7926 0.7926 0.6097 -473.4628 613.0932)" class="st6" width="10.1" height="10.3"/>
			</g>
			<g>
				
					<rect x="452.7" y="809.9" transform="matrix(0.6097 -0.7926 0.7926 0.6097 -467.3584 680.9432)" class="st6" width="10.1" height="10.3"/>
				
					<rect x="433.2" y="794.9" transform="matrix(0.6097 -0.7926 0.7926 0.6097 -463.0711 659.5962)" class="st6" width="10.1" height="10.3"/>
				
					<rect x="413.7" y="779.9" transform="matrix(0.6097 -0.7926 0.7926 0.6097 -458.7839 638.2492)" class="st6" width="10.1" height="10.3"/>
				
					<rect x="394.1" y="764.8" transform="matrix(0.6097 -0.7926 0.7926 0.6097 -454.4967 616.9023)" class="st6" width="10.1" height="10.3"/>
			</g>
			<g>
				
					<rect x="466.1" y="792.6" transform="matrix(0.6097 -0.7926 0.7926 0.6097 -448.3922 684.7523)" class="st6" width="10.1" height="10.3"/>
				
					<rect x="446.6" y="777.5" transform="matrix(0.6097 -0.7926 0.7926 0.6097 -444.105 663.4053)" class="st6" width="10.1" height="10.3"/>
				
					<rect x="427" y="762.5" transform="matrix(0.6097 -0.7926 0.7926 0.6097 -439.8178 642.0583)" class="st6" width="10.1" height="10.3"/>
				
					<rect x="407.5" y="747.5" transform="matrix(0.6097 -0.7926 0.7926 0.6097 -435.5305 620.7114)" class="st6" width="10.1" height="10.3"/>
			</g>
			<g>
				
					<rect x="479.4" y="775.2" transform="matrix(0.6097 -0.7926 0.7926 0.6097 -429.4261 688.5613)" class="st6" width="10.1" height="10.3"/>
				
					<rect x="459.9" y="760.2" transform="matrix(0.6097 -0.7926 0.7926 0.6097 -425.1389 667.2144)" class="st6" width="10.1" height="10.3"/>
				
					<rect x="440.4" y="745.1" transform="matrix(0.6097 -0.7926 0.7926 0.6097 -420.8517 645.8674)" class="st6" width="10.1" height="10.3"/>
				
					<rect x="420.8" y="730.1" transform="matrix(0.6097 -0.7926 0.7926 0.6097 -416.5644 624.5204)" class="st6" width="10.1" height="10.3"/>
			</g>
			<g>
				
					<rect x="492.8" y="757.8" transform="matrix(0.6097 -0.7926 0.7926 0.6097 -410.46 692.3704)" class="st6" width="10.1" height="10.3"/>
				
					<rect x="473.3" y="742.8" transform="matrix(0.6097 -0.7926 0.7926 0.6097 -406.1728 671.0234)" class="st6" width="10.1" height="10.3"/>
				
					<rect x="453.7" y="727.8" transform="matrix(0.6097 -0.7926 0.7926 0.6097 -401.8855 649.6765)" class="st6" width="10.1" height="10.3"/>
				
					<rect x="434.2" y="712.8" transform="matrix(0.6097 -0.7926 0.7926 0.6097 -397.5983 628.3295)" class="st6" width="10.1" height="10.3"/>
			</g>
			<g>
				
					<rect x="506.1" y="740.5" transform="matrix(0.6097 -0.7926 0.7926 0.6097 -391.4939 696.1794)" class="st6" width="10.1" height="10.3"/>
				
					<rect x="486.6" y="725.5" transform="matrix(0.6097 -0.7926 0.7926 0.6097 -387.2066 674.8325)" class="st6" width="10.1" height="10.3"/>
				
					<rect x="467.1" y="710.4" transform="matrix(0.6097 -0.7926 0.7926 0.6097 -382.9194 653.4855)" class="st6" width="10.1" height="10.3"/>
				
					<rect x="447.5" y="695.4" transform="matrix(0.6097 -0.7926 0.7926 0.6097 -378.6321 632.1385)" class="st6" width="10.1" height="10.3"/>
			</g>
			<g>
				
					<rect x="519.5" y="723.1" transform="matrix(0.6097 -0.7926 0.7926 0.6097 -372.5277 699.9885)" class="st6" width="10.1" height="10.3"/>
				
					<rect x="500" y="708.1" transform="matrix(0.6097 -0.7926 0.7926 0.6097 -368.2405 678.6416)" class="st6" width="10.1" height="10.3"/>
				
					<rect x="480.4" y="693.1" transform="matrix(0.6097 -0.7926 0.7926 0.6097 -363.9532 657.2946)" class="st6" width="10.1" height="10.3"/>
				
					<rect x="460.9" y="678" transform="matrix(0.6097 -0.7926 0.7926 0.6097 -359.666 635.9476)" class="st6" width="10.1" height="10.3"/>
			</g>
			<g>
				
					<rect x="532.8" y="705.8" transform="matrix(0.6097 -0.7926 0.7926 0.6097 -353.5616 703.7976)" class="st6" width="10.1" height="10.3"/>
				
					<rect x="513.3" y="690.7" transform="matrix(0.6097 -0.7926 0.7926 0.6097 -349.2744 682.4507)" class="st6" width="10.1" height="10.3"/>
				
					<rect x="493.8" y="675.7" transform="matrix(0.6097 -0.7926 0.7926 0.6097 -344.9871 661.1037)" class="st6" width="10.1" height="10.3"/>
				
					<rect x="474.2" y="660.7" transform="matrix(0.6097 -0.7926 0.7926 0.6097 -340.6999 639.7567)" class="st6" width="10.1" height="10.3"/>
			</g>
		</g>
	</g>
	<path class="st8" d="M801.9,256.5c31.8-14.8,65.2-27.5,100.1-38c-11-42.5-25.9-85.2-44.8-127.3c-44.6,12.4-87.1,28.3-127.1,47
		c-38.2,17.9-74.1,38.5-107.3,61.2C685.2,210.3,745.3,229.6,801.9,256.5z"/>
	<path class="st8" d="M983.9,381.9c3-58.3-0.6-118.7-11.2-179.9c-24.2,4.4-47.8,9.9-70.8,16.4c-34.9,10.5-68.3,23.3-100.1,38
		C868.4,288.1,929.9,330.3,983.9,381.9z"/>
	<path class="st9" d="M620.7,199c31.5,5.4,62.4,13,92.5,22.5c15.4-11.3,31.4-22.1,47.9-32.5c-1.7-2.9-3.4-5.9-5.1-8.8
		c10.5-3.4,21.2-6.7,32-9.7c-1.5-3.5-3-7-4.6-10.5c12.2,0.3,24.4,1,36.7,1.9c-1.5-7.2-3.1-14.4-4.8-21.6
		c13.6-16.6,27.5-33.1,41.8-49.2C769,115.1,689.3,152.4,620.7,199z"/>
	<path class="st9" d="M842,277.2c11.2-5.6,22.7-11.1,34.3-16.2c1.5,2.5,3.1,5,4.6,7.4c15.4-10.7,31.1-21.1,47.2-31.1
		c1.5,2,3,4.1,4.5,6.2c13.2-14,26.6-27.8,40.1-41.5c-24.2,4.4-47.8,9.9-70.8,16.4c-34.9,10.5-68.3,23.3-100.1,38
		C815.5,262.9,828.9,269.9,842,277.2z"/>
	<path class="st8" d="M880.9,267.5c0.3-33.5-1.8-67.7-6.7-102.2c-32.9,8.2-64.5,18.5-94.7,30.8C815.6,216.4,849.6,240.3,880.9,267.5
		z"/>
	<path class="st9" d="M819.3,220.5c1.1-0.8,2.3-1.7,3.4-2.5c-1.5-2.3-3-4.6-4.6-6.9c5.7-0.4,11.5-0.8,17.3-1
		c-2.5-3.6-5-7.1-7.6-10.6c6.3,0.2,12.7,0.6,19,1c9.1-11.8,18.2-23.5,27.4-35.2c-32.9,8.2-80.9,25.5-111.1,37.8
		C776.7,210.7,806.4,211.9,819.3,220.5z"/>
	<g>
		<polygon class="st8" points="440,373.6 419.6,447.5 280.8,399.3 296.2,343.6 		"/>
		<polygon class="st10" points="299.2,344.2 296.2,343.6 280.8,399.3 283.7,400.3 		"/>
		
			<rect x="244" y="360.8" transform="matrix(0.2666 -0.9638 0.9638 0.2666 -150.2149 541.0421)" class="st7" width="72.9" height="16.8"/>
		
			<rect x="226.7" y="344.9" transform="matrix(0.2666 -0.9638 0.9638 0.2666 -160.9912 512.2059)" class="st11" width="58.7" height="34"/>
		
			<rect x="211.8" y="356.3" transform="matrix(0.2666 -0.9638 0.9638 0.2666 -167.9807 494.7347)" class="st10" width="58.7" height="2.9"/>
		<polygon class="st7" points="199.3,345.2 228.5,398.7 251.6,315.3 		"/>
		
			<rect x="245.7" y="364.2" transform="matrix(0.2666 -0.9638 0.9638 0.2666 -176.2757 518.8881)" class="st6" width="14.3" height="22.1"/>
		
			<rect x="253" y="337.6" transform="matrix(0.2666 -0.9638 0.9638 0.2666 -145.2534 506.4773)" class="st6" width="14.3" height="22.1"/>
		<path class="st9" d="M408.9,387.9l25.2,7l-9,32.7l-25.2-7c-9-2.5-14.3-11.8-11.8-20.9C390.5,390.7,399.9,385.4,408.9,387.9z"/>
	</g>
	<g>
		<path class="st2" d="M1070.8,436.5c2.9,1.1,6.3,1.3,9.5,0.4c8.4-2.3,13.3-10.9,11-19.3c-0.1-0.4-0.3-0.9-0.4-1.3
			c2.3-2.5,3.4-5.8,3-9.3c7.6-2.6,12-10.6,9.8-18.5c-0.5-1.9-1.4-3.6-2.5-5.1c4.2-4.6,6.1-11.2,4.3-17.7
			c-2.1-7.6-8.4-12.8-15.7-13.8c-0.1-0.8-0.2-1.5-0.4-2.3c-1.7-6.3-7.1-10.5-13.2-11.1c-3.2-6.4-9.8-10.3-16.9-10.1
			c-1.9-3-5.6-4.6-9.2-3.6c-1,0.3-2,0.8-2.8,1.4c-4.8-1.7-10.1-2-15.4-0.5c-13.9,3.8-22.2,18.1-18.4,32.1c0.1,0.5,0.3,1,0.4,1.5
			c-3.5,5.3-4.8,12-3,18.6c2,7.5,7.6,13.1,14.4,15.5c-5.4,5.6-7.9,13.8-5.7,21.9c1.8,6.7,6.5,12,12.4,14.7c0.1,0.4,0.2,0.7,0.3,1.1
			c3.1,11.3,14.7,17.9,25.9,14.9C1063.8,444.3,1068.1,440.9,1070.8,436.5z"/>
		<path class="st4" d="M1070.8,425.1c2.4,0.9,5,1,7.6,0.3c6.7-1.8,10.6-8.7,8.8-15.4c-0.1-0.4-0.2-0.7-0.3-1c1.8-2,2.8-4.7,2.4-7.4
			c6.1-2.1,9.6-8.5,7.9-14.8c-0.4-1.5-1.1-2.9-2-4.1c3.4-3.7,4.9-9,3.4-14.2c-1.6-6.1-6.7-10.2-12.6-11c-0.1-0.6-0.2-1.2-0.3-1.8
			c-1.4-5-5.7-8.4-10.6-8.9c-2.5-5.1-7.8-8.3-13.5-8.1c-1.5-2.4-4.4-3.7-7.3-2.9c-0.8,0.2-1.6,0.6-2.2,1.1
			c-3.8-1.3-8.1-1.6-12.3-0.4c-11.1,3-17.7,14.5-14.7,25.7c0.1,0.4,0.2,0.8,0.4,1.2c-2.8,4.2-3.8,9.6-2.4,14.8
			c1.6,6,6.1,10.5,11.5,12.4c-4.4,4.5-6.3,11.1-4.6,17.5c1.5,5.4,5.2,9.6,9.9,11.8c0.1,0.3,0.1,0.6,0.2,0.8
			c2.4,9,11.7,14.3,20.7,11.9C1065.1,431.3,1068.6,428.6,1070.8,425.1z"/>
		<path class="st3" d="M1045.7,404l-8.6-7.2c-0.1,0-0.1-0.1-0.2-0.1l22.1-7.8l-2.1-7.8l-22.4,4.3l7.1-18l-2.7-3.1l-11.9,18.9
			l-57.7,15.7l5,18.3l57.1-15.5l12.1,6.2L1045.7,404z"/>
	</g>
	<g>
		<path class="st2" d="M1057.3,580.6c2.2,2.2,5.1,3.9,8.4,4.5c8.5,1.5,16.7-4.1,18.2-12.6c0.1-0.5,0.1-0.9,0.2-1.4
			c3.1-1.3,5.6-3.8,6.7-7.1c8,0.9,15.4-4.5,16.8-12.5c0.4-1.9,0.3-3.9,0-5.7c5.8-2.4,10.3-7.5,11.5-14.1c1.4-7.7-2.1-15.2-8.3-19.2
			c0.2-0.7,0.4-1.5,0.6-2.2c1.2-6.4-1.9-12.6-7.2-15.7c-0.1-7.1-4.4-13.5-10.9-16.4c-0.4-3.5-3-6.5-6.7-7.2c-1.1-0.2-2.1-0.2-3.1,0
			c-3.6-3.6-8.3-6.1-13.7-7.1c-14.2-2.6-27.8,6.8-30.4,21c-0.1,0.5-0.2,1-0.2,1.5c-5.4,3.3-9.5,8.8-10.7,15.5
			c-1.4,7.7,1.2,15.1,6.3,20.2c-7.3,2.7-13.1,9.1-14.5,17.3c-1.2,6.9,0.7,13.6,4.9,18.6c-0.1,0.4-0.2,0.7-0.2,1.1
			c-2.1,11.5,5.5,22.5,17,24.6C1047.6,584.6,1052.9,583.4,1057.3,580.6z"/>
		<path class="st4" d="M1062.1,570.2c1.8,1.8,4.1,3.1,6.7,3.6c6.8,1.2,13.4-3.3,14.6-10.1c0.1-0.4,0.1-0.7,0.1-1.1
			c2.5-1,4.5-3,5.4-5.7c6.4,0.7,12.3-3.6,13.5-10c0.3-1.6,0.3-3.1,0-4.5c4.6-1.9,8.2-6,9.2-11.3c1.1-6.2-1.7-12.1-6.6-15.4
			c0.2-0.6,0.4-1.2,0.5-1.8c0.9-5.1-1.5-10.1-5.7-12.5c-0.1-5.7-3.5-10.8-8.7-13.1c-0.3-2.8-2.4-5.2-5.4-5.8c-0.8-0.2-1.7-0.1-2.5,0
			c-2.9-2.9-6.6-4.9-11-5.7c-11.4-2.1-22.2,5.5-24.3,16.8c-0.1,0.4-0.1,0.8-0.2,1.2c-4.3,2.6-7.6,7-8.6,12.4
			c-1.1,6.1,1,12.1,5.1,16.2c-5.9,2.2-10.4,7.3-11.6,13.9c-1,5.5,0.6,10.9,3.9,14.9c-0.1,0.3-0.1,0.6-0.2,0.9
			c-1.7,9.2,4.4,18,13.6,19.7C1054.3,573.4,1058.7,572.5,1062.1,570.2z"/>
		<path class="st3" d="M1048.5,540.5l-4.7-10.2c0-0.1-0.1-0.1-0.1-0.2l23.3,2.4l1.4-7.9l-22.1-5.7l14.1-13.3l-1.1-3.9l-18.9,12
			L981.7,503l-3.4,18.7l58.2,10.6l8.3,10.8L1048.5,540.5z"/>
	</g>
	<g>
		<path class="st2" d="M769.9,826.6c-0.9,3-0.8,6.3,0.3,9.5c2.9,8.2,11.8,12.5,20,9.6c0.4-0.2,0.9-0.3,1.3-0.5
			c2.6,2.1,6.1,3,9.5,2.4c3.1,7.4,11.5,11.2,19.2,8.5c1.9-0.7,3.5-1.6,4.9-2.8c4.9,3.9,11.6,5.2,18,3c7.4-2.6,12.2-9.3,12.6-16.7
			c0.8-0.1,1.5-0.3,2.2-0.6c6.1-2.1,10-7.8,10.1-14c6.1-3.6,9.6-10.5,8.8-17.6c2.9-2.1,4.2-5.9,3-9.4c-0.4-1-0.9-1.9-1.6-2.7
			c1.3-4.9,1.2-10.3-0.6-15.4c-4.8-13.6-19.7-20.8-33.3-16c-0.5,0.2-1,0.4-1.4,0.6c-5.5-3.1-12.3-3.9-18.7-1.7
			c-7.3,2.6-12.5,8.5-14.5,15.5c-6-5-14.4-6.9-22.2-4.1c-6.6,2.3-11.5,7.3-13.8,13.4c-0.3,0.1-0.7,0.2-1,0.3
			c-11,3.9-16.8,15.9-13,26.9C761.6,820.1,765.3,824.2,769.9,826.6z"/>
		<path class="st4" d="M781.3,825.6c-0.7,2.4-0.7,5.1,0.2,7.6c2.3,6.5,9.5,10,16,7.7c0.3-0.1,0.7-0.3,1-0.4c2.1,1.7,4.9,2.4,7.6,1.9
			c2.5,5.9,9.2,8.9,15.3,6.8c1.5-0.5,2.8-1.3,3.9-2.3c3.9,3.1,9.3,4.2,14.4,2.4c5.9-2.1,9.7-7.5,10.1-13.3c0.6-0.1,1.2-0.3,1.8-0.5
			c4.9-1.7,8-6.3,8.1-11.2c4.9-2.9,7.7-8.4,7.1-14.1c2.3-1.7,3.4-4.7,2.4-7.5c-0.3-0.8-0.7-1.5-1.2-2.1c1.1-3.9,1-8.2-0.5-12.3
			c-3.8-10.9-15.7-16.6-26.6-12.8c-0.4,0.1-0.8,0.3-1.1,0.4c-4.4-2.5-9.8-3.1-15-1.3c-5.9,2.1-10,6.8-11.6,12.4
			c-4.8-4-11.5-5.5-17.8-3.3c-5.3,1.8-9.2,5.9-11,10.7c-0.3,0.1-0.6,0.2-0.8,0.3c-8.8,3.1-13.5,12.7-10.4,21.5
			C774.6,820.5,777.6,823.7,781.3,825.6z"/>
		<path class="st3" d="M800.4,799.1l6.6-9.1c0-0.1,0.1-0.1,0.1-0.2l9.4,21.5l7.6-2.7l-5.9-22.1l18.5,5.7l2.9-2.9L819.8,779
			L800,722.5l-17.9,6.3l19.6,55.9l-5.3,12.5L800.4,799.1z"/>
	</g>
	<g>
		<polygon class="st5" points="379.2,586.2 436,563.4 463.7,632.5 406.9,655.3 378.3,627.7 		"/>
		<polygon class="st7" points="368.7,631.7 402.4,664.1 412.7,660 379,627.5 380.1,578.8 369.8,583 		"/>
		
			<rect x="415.1" y="590.3" transform="matrix(0.9281 -0.3724 0.3724 0.9281 -194.0165 204.775)" class="st6" width="36" height="28.7"/>
		<polygon class="st6" points="387.2,613.5 399.7,608.5 406.9,626.4 394.4,631.4 386.9,624.3 		"/>
	</g>
	<g>
		<polygon class="st5" points="361.6,474.7 422.3,467.4 431.2,541.3 370.5,548.6 350,514.5 		"/>
		<polygon class="st7" points="339.7,515.9 363.8,555.9 374.8,554.6 350.7,514.6 364.4,467.8 353.4,469.1 		"/>
		
			<rect x="390.9" y="492.2" transform="matrix(0.9929 -0.1193 0.1193 0.9929 -57.49 52.3809)" class="st6" width="36" height="28.7"/>
		<polygon class="st6" points="362.3,503.2 375.6,501.6 378,520.7 364.6,522.4 359.2,513.5 		"/>
	</g>
	<g>
		<g>
			
				<rect x="446.3" y="289.2" transform="matrix(0.6356 -0.7721 0.7721 0.6356 -76.8361 466.3835)" class="st3" width="18.5" height="50.8"/>
			<path class="st2" d="M444.6,287.6c11.2-2.7,29.2-13.3,36.3-18.4c-32.4,6.3-67.9-0.5-83-2.4c-0.1,0-0.3,0-0.4,0
				c0,0.1,0.1,0.2,0.1,0.4c4.8,14.4,18.3,48,18.3,81c3.6-8,10.6-27.7,11.1-39.2c0,0,10.4,18,9.9,26.3c0,0,4.8-23.1,1.7-34.7
				c12,0.8,33.8-8.3,33.8-8.3C464.2,294.4,444.6,287.6,444.6,287.6z"/>
			<path class="st12" d="M431,278.1c10.2-2.4,26.5-12.1,33-16.7c-29.4,5.7-61.8-0.4-75.5-2.2c-0.1,0-0.2,0-0.3,0
				c0,0.1,0.1,0.2,0.1,0.3c4.4,13.1,16.6,43.7,16.6,73.7c3.3-7.3,9.6-25.2,10.1-35.6c0,0,4.7,12.3,4.2,19.8c0,0,9.1-16.9,6.3-27.4
				c10.9,0.7,26.2-9.9,26.2-9.9C444.3,281.8,431,278.1,431,278.1z"/>
			<path class="st2" d="M417.4,268.5c9.2-2.2,23.9-10.9,29.7-15.1c-26.5,5.2-55.6-0.4-68-2c-0.1,0-0.2,0-0.3,0
				c0,0.1,0.1,0.2,0.1,0.3c3.9,11.8,15,39.3,15,66.3c2.9-6.6,8.7-22.7,9.1-32.1c0,0,5.1,10.4,4.7,17.2c0,0,7.3-14.6,4.7-24.1
				c9.8,0.6,24.9-9.6,24.9-9.6C430.8,271.2,417.4,268.5,417.4,268.5z"/>
			<path class="st12" d="M403.8,258.9c8.2-1.9,21.2-9.7,26.4-13.4c-23.6,4.6-49.5-0.3-60.4-1.7c-0.1,0-0.2,0-0.3,0
				c0,0.1,0.1,0.2,0.1,0.3c3.5,10.5,13.3,35,13.3,59c2.6-5.8,7.7-20.1,8.1-28.5c0,0,4.9,10.5,4.5,16.6c0,0,6.2-14.2,3.9-22.7
				c8.7,0.6,23.1-7.7,23.1-7.7C416.6,262.3,403.8,258.9,403.8,258.9z"/>
			<path class="st2" d="M390.2,249.4c7.1-1.7,18.6-8.5,23.2-11.7c-20.6,4-43.3-0.3-52.9-1.5c-0.1,0-0.2,0-0.2,0
				c0,0.1,0.1,0.2,0.1,0.2c3.1,9.2,11.6,30.6,11.7,51.6c2.3-5.1,6.8-17.6,7.1-25c0,0,3.9,6.9,3.6,12.2c0,0,5.7-10.1,3.8-17.5
				c7.7,0.5,17.4-6.8,17.4-6.8C398.7,252.2,390.2,249.4,390.2,249.4z"/>
		</g>
	</g>
	<g>
		<g>
			
				<rect x="509.2" y="216.4" transform="matrix(0.8204 -0.5718 0.5718 0.8204 -45.1529 339.9057)" class="st3" width="18.5" height="50.8"/>
			<path class="st2" d="M515.1,212.9c11.5,0.4,31.7-5,39.9-7.9c-32.9-2.7-65.3-18.8-79.3-24.7c-0.1,0-0.2-0.1-0.3-0.1
				c0,0.1,0,0.3,0,0.4c0.7,15.2,4.6,51.2-4.2,82.9c5.6-6.7,17.7-23.8,21.2-34.7c0,0,5.1,20.2,2.4,28c0,0,10.8-21,11-33
				c11.3,4,34.8,1.1,34.8,1.1C532.3,224.7,515.1,212.9,515.1,212.9z"/>
			<path class="st12" d="M504.6,200c10.5,0.4,28.8-4.5,36.3-7.2c-29.9-2.4-59.4-17.1-72.1-22.5c-0.1,0-0.2-0.1-0.3-0.1
				c0,0.1,0,0.2,0,0.3c0.7,13.8,4.2,46.5-3.9,75.4c5.1-6.1,16.1-21.6,19.3-31.6c0,0,1.2,13.1-1.3,20.2c0,0,13.3-13.8,13.4-24.7
				c10.3,3.6,27.9-2.5,27.9-2.5C516.5,207.2,504.6,200,504.6,200z"/>
			<path class="st2" d="M494.1,187.2c9.4,0.4,25.9-4.1,32.7-6.5c-26.9-2.2-53.5-15.4-64.9-20.2c-0.1,0-0.2-0.1-0.3-0.1
				c0,0.1,0,0.2,0,0.3c0.6,12.4,3.8,41.9-3.5,67.9c4.6-5.5,14.5-19.5,17.4-28.4c0,0,2.1,11.4-0.1,17.9c0,0,10.9-12.1,11.1-21.9
				c9.3,3.3,26.6-2.5,26.6-2.5C506.3,193.4,494.1,187.2,494.1,187.2z"/>
			<path class="st12" d="M483.6,174.3c8.4,0.3,23.1-3.6,29.1-5.8c-23.9-1.9-47.5-13.7-57.7-18c-0.1,0-0.2-0.1-0.3-0.1
				c0,0.1,0,0.2,0,0.3c0.5,11.1,3.4,37.3-3.1,60.4c4.1-4.9,12.9-17.3,15.5-25.3c0,0,1.9,11.4-0.2,17.2c0,0,9.8-12,9.9-20.8
				c8.3,2.9,24.3-1.1,24.3-1.1C495.1,180.9,483.6,174.3,483.6,174.3z"/>
			<path class="st2" d="M473.1,161.4c7.3,0.3,20.2-3.2,25.5-5c-20.9-1.7-41.6-12-50.5-15.8c-0.1,0-0.1-0.1-0.2-0.1
				c0,0.1,0,0.2,0,0.2c0.5,9.7,3,32.6-2.7,52.9c3.6-4.3,11.3-15.2,13.5-22.1c0,0,1.9,7.7,0.2,12.7c0,0,8.3-8.2,8.4-15.9
				c7.2,2.6,18.6-1.9,18.6-1.9C480.5,166.4,473.1,161.4,473.1,161.4z"/>
		</g>
	</g>
	<g>
		<g>
			
				<rect x="606.4" y="172.2" transform="matrix(0.9201 -0.3916 0.3916 0.9201 -28.2139 256.8792)" class="st3" width="18.5" height="50.8"/>
			<path class="st2" d="M618.3,168.6c11.2,2.8,32,1.6,40.7,0.4c-31.6-9.3-60.1-31.7-72.5-40.4c-0.1-0.1-0.2-0.1-0.3-0.2
				c0,0.1,0,0.2-0.1,0.4c-2.4,15-6,51-21.1,80.3c6.9-5.4,22.2-19.7,27.9-29.6c0,0,0.9,20.8-3.4,27.9c0,0,14.9-18.3,17.5-30
				c10.3,6.2,33.8,8.2,33.8,8.2C632.6,183.7,618.3,168.6,618.3,168.6z"/>
			<path class="st12" d="M610.7,153.9c10.2,2.5,29.1,1.5,37,0.4c-28.8-8.5-54.6-28.9-66-36.8c-0.1-0.1-0.2-0.1-0.3-0.2
				c0,0.1,0,0.2-0.1,0.3c-2.2,13.7-5.4,46.4-19.2,73c6.3-4.9,20.2-17.9,25.4-27c0,0-1.5,13-5.4,19.5c0,0,15.8-10.8,18.2-21.5
				c9.4,5.7,27.8,3.2,27.8,3.2C620.8,163.3,610.7,153.9,610.7,153.9z"/>
			<path class="st2" d="M603,139.1c9.1,2.3,26.2,1.3,33.3,0.4c-25.9-7.6-49.2-26-59.4-33.1c-0.1-0.1-0.2-0.1-0.3-0.2
				c0,0.1,0,0.2,0,0.3c-2,12.3-4.9,41.8-17.3,65.7c5.6-4.5,18.2-16.1,22.9-24.3c0,0-0.2,11.6-3.8,17.5c0,0,13.2-9.6,15.3-19.2
				c8.4,5.1,26.6,3,26.6,3C613.7,147.7,603,139.1,603,139.1z"/>
			<path class="st12" d="M595.4,124.4c8.1,2,23.3,1.2,29.6,0.3c-23-6.8-43.7-23.1-52.8-29.4c-0.1-0.1-0.2-0.1-0.2-0.2
				c0,0.1,0,0.2,0,0.3c-1.7,10.9-4.3,37.2-15.4,58.5c5-4,16.2-14.3,20.3-21.6c0,0-0.5,11.6-3.7,16.8c0,0,12-9.8,13.9-18.3
				c7.5,4.5,24,3.8,24,3.8C605.2,133.2,595.4,124.4,595.4,124.4z"/>
			<path class="st2" d="M587.8,109.6c7.1,1.8,20.4,1,26,0.3c-20.2-6-38.3-20.2-46.2-25.8c-0.1,0-0.1-0.1-0.2-0.1c0,0.1,0,0.2,0,0.2
				c-1.5,9.6-3.8,32.5-13.5,51.2c4.4-3.5,14.1-12.5,17.8-18.9c0,0,0.3,7.9-2.5,12.5c0,0,9.8-6.3,11.4-13.8c6.6,4,18.6,2,18.6,2
				C594,116,587.8,109.6,587.8,109.6z"/>
		</g>
	</g>
	<g>
		<g>
			
				<rect x="683.8" y="753.7" transform="matrix(-0.9851 0.1721 -0.1721 -0.9851 1509.8566 1427.437)" class="st3" width="18.5" height="50.8"/>
			<path class="st2" d="M683.9,806.8c-10.2-5.3-30.8-8.9-39.5-9.7c28.7,16.3,51.3,44.6,61.4,55.9c0.1,0.1,0.2,0.2,0.3,0.3
				c0-0.1,0.1-0.2,0.1-0.3c5.7-14.1,17.4-48.3,38.8-73.4c-7.9,3.7-26.1,14.1-33.9,22.5c0,0,3.8-20.5,9.7-26.4
				c0,0-18.7,14.4-23.9,25.3c-8.6-8.4-31-15.7-31-15.7C673.3,788.9,683.9,806.8,683.9,806.8z"/>
			<path class="st12" d="M688,822.9c-9.3-4.8-28-8.1-36-8.8c26.1,14.8,46.6,40.5,55.9,50.8c0.1,0.1,0.2,0.2,0.2,0.3
				c0-0.1,0.1-0.2,0.1-0.3c5.2-12.8,15.8-44,35.3-66.7c-7.2,3.4-23.7,12.8-30.8,20.5c0,0,4.4-12.4,9.7-17.8c0,0-17.9,6.9-22.6,16.7
				c-7.8-7.7-26.3-9.5-26.3-9.5C680.3,811.4,688,822.9,688,822.9z"/>
			<path class="st2" d="M692,839c-8.4-4.3-25.2-7.2-32.4-7.9c23.5,13.3,42,36.5,50.3,45.7c0.1,0.1,0.1,0.2,0.2,0.2
				c0-0.1,0.1-0.2,0.1-0.3c4.7-11.5,14.3-39.6,31.8-60.1c-6.5,3.1-21.3,11.5-27.8,18.4c0,0,2.9-11.3,7.6-16.1c0,0-15,6.3-19.3,15.2
				c-7-6.9-25.2-8.9-25.2-8.9C683.6,828.2,692,839,692,839z"/>
			<path class="st12" d="M696.1,855.1c-7.5-3.8-22.4-6.4-28.8-7c20.9,11.9,37.3,32.5,44.7,40.7c0.1,0.1,0.1,0.1,0.2,0.2
				c0-0.1,0.1-0.2,0.1-0.3c4.2-10.2,12.7-35.2,28.3-53.4c-5.8,2.7-19,10.3-24.7,16.4c0,0,3.1-11.1,7.4-15.5c0,0-13.9,6.8-17.7,14.7
				c-6.3-6.1-22.5-9.2-22.5-9.2C688.6,844.2,696.1,855.1,696.1,855.1z"/>
			<path class="st2" d="M700.2,871.2c-6.5-3.4-19.6-5.6-25.2-6.2c18.3,10.4,32.7,28.4,39.2,35.6c0.1,0.1,0.1,0.1,0.2,0.2
				c0-0.1,0.1-0.1,0.1-0.2c3.7-9,11.1-30.8,24.8-46.8c-5.1,2.4-16.6,9-21.6,14.4c0,0,1.5-7.8,5.2-11.6c0,0-11,3.9-14.3,10.9
				c-5.5-5.4-17.7-6.2-17.7-6.2C695.6,863.6,700.2,871.2,700.2,871.2z"/>
		</g>
	</g>
	<path class="st13" d="M992.1,475.7c0,49.5-12.5,96-34.4,136.7c-1,1.9-2.1,3.9-3.2,5.8c-4.3,7.6-9,15-14,22.1
		c-0.9,1.2-1.7,2.5-2.6,3.7c-52.3,72.7-137.7,120-234.1,120c-139.3,0-255.5-98.8-282.4-230.2c-3.8-18.8-5.9-38.2-5.9-58.1
		c0-10.8,0.6-21.6,1.8-32.1l0-0.1c2.4-21.5,7.1-42.3,14-62.1c39-112.9,146.3-194,272.5-194c7.6,0,15.2,0.3,22.7,0.9
		c116.4,9.1,213.4,87.2,250,193.6c3.8,11.1,7,22.5,9.4,34.2c0.1,0.4,0.2,0.8,0.2,1.1v0c0.9,4.3,1.7,8.7,2.4,13
		C990.9,445.1,992.1,460.3,992.1,475.7z"/>
	<path class="st14" d="M857.7,401.3c0,40.9-10.3,79.4-28.4,113c-4.9,9.1-10.4,17.8-16.4,26.1c-43.2,60.1-113.8,99.2-193.5,99.2
		c-17.6,0-34.8-1.9-51.3-5.6c-11.4-2.5-22.5-5.8-33.3-9.9c-46.5-17.7-86.1-49.5-113.4-90.2c-3.8-18.8-5.9-38.2-5.9-58.1
		c0-10.8,0.6-21.6,1.8-32.1l0-0.1c0.2-2.1,0.5-4.1,0.8-6.2c2.3-17,6-33.6,11.1-49.6c0.7-2.1,1.4-4.2,2.1-6.3
		c39-112.9,146.3-194,272.5-194c7.6,0,15.2,0.3,22.7,0.9c55.1,27.8,98,76.3,118.2,135.3c3.2,9.2,5.8,18.6,7.8,28.2
		c0.1,0.3,0.1,0.6,0.2,0.9v0c0.7,3.6,1.4,7.2,2,10.8C856.7,375.9,857.7,388.5,857.7,401.3z"/>
	<g>
		<path class="st15" d="M990.5,444.5c-0.5-4.8-1.1-9.5-1.9-14.2c-0.7-4.4-1.5-8.7-2.4-13v0c-0.1-0.4-0.2-0.8-0.2-1.1
			c-2.4-11.7-5.6-23.1-9.4-34.2c-2.2-6.4-4.6-12.7-7.3-18.9l-24.4-5.6l-20.1-3.3l-3.1-6.6l-18.3-1l-16.5-27.1l-6.9,2.4l-7.2-11.3
			L855,328.3l-0.7,1.3l-5.3-1.5l-20.3,11.8l-2.3,10.2l-7.5,1.3l-0.7-13.2L789,369.8l-0.1,1.7l-4.7-1.7l-31,18.9l-8.3-16l-18.5-4.1
			l-8.2-1.8l-3.8,2.6c-23.9,16.4-25.1,17.4-26.3,20.9c-1.4,3-9.8,20.2-15.1,30.9l-7.3,14.8l14.4,0.4L664,454.1l-2.2,2.2l-1.3,7.1
			l-15.1,2.2l-8.1,26.7l12.4,5.3L626,519.7l14.8,57.2l38.2-2.1l5.8,19l5.2,16.4l19.9,62.7l33.4-48.1l3.7-5.4l8-11.6l0,0.1l17.7,22.5
			l14.3-26l5.2,1.7l-2.4-29l-14.1-9.4l9.7-19.8l-11.9-3.9l2.5-14.8l20.8,7.3l8.6,20.6l38.8-18l2.7,4.1l-2.4,9l-3.7,7l16.2,20.5
			l7.4,7.4l0.9,3.4l3.5,1l11.1,11.1l1-8.4l2.1,0.6h2.8l8.3,3.2l-0.5,0.2l-16.9,6.5l2.5,17.3l1,7.1l-6.7,20.1l23.9-2.3l5.3,2.8
			l13.1-6.2l4.4-0.6l6.6,4.8l0.5,1.7l4.1,2.9c2.2-2.8,4.3-5.6,6.4-8.5c0.9-1.2,1.8-2.5,2.6-3.7c5-7.1,9.6-14.5,14-22.1
			c1.1-1.9,2.2-3.8,3.2-5.8c1.7-3.2,3.4-6.4,4.9-9.6c-0.6-0.4-1.6-1.2-2.8-2.2c-0.3-0.9-0.7-1.9-1.2-2.9l6.2,0.5
			c2.4-5,4.6-10.1,6.6-15.2l-8.8-6.3l-2-2.5l-1.1-4.1l-2.8-2.2c-3.8-3-5.2-3.9-6.8-4.4c-0.9-0.4-5.9-2.4-10.2-4.1l-4.7-1.9l-2.5,1.4
			l-0.7-0.1l-1.4-1.3l5.7-7.1l-3.9,0.7l1.9-2.8l-9.6,3.4l-3.3-7.5l0.1-0.1l-4.1-11l-0.9-0.4l0.4-7l-10.9-4.9l7.6-8.4l0.4-0.2
			l2.9,4.1l3-6.9l29.6-13.8l6.5-9.2l1.1-8l4-2.9l1.9-9.5l8.7-10.9l-0.3-0.6l13.1-3.1L990.5,444.5z M890.8,537.4l-2.2,0.2l1.8,3.5
			l-0.5,4.3l-2.4-0.6l-1.1,1.3v-12.2l5-0.8C891.2,534.1,891,535.5,890.8,537.4z M950.9,439.2l-3.7,0.3l0-0.6l-0.6-0.3l2.4-2.5
			l1.9,0.1V439.2z"/>
		<polygon class="st15" points="529.2,330.8 522.3,336.8 542.5,349.8 552.4,350.3 555.9,363.2 561.6,372.6 558.3,398.9 566.9,419.2 
			588.2,444.3 602.9,413.8 618.3,404.2 642.6,387.2 628.1,372.4 630.5,369 635,363.2 645.9,353 642.5,318.8 645.6,308.1 
			669.3,274.7 640,272.4 639.9,272.1 640.5,269.6 639.3,269.7 634.2,251.1 632.2,251.1 633.8,248.3 612,243.4 589.8,251.3 
			581.2,264.3 577.1,261 554.4,266.2 532.6,301.6 534.7,306.3 516.5,319.7 		"/>
		<path class="st15" d="M618.1,578.6c-0.6-3.3-2.7-6.1-5.6-7.6c-1.1-0.7-4.9-3.5-7.8-5.7l-2-1.6l-11.7-2.3l-4.7-0.6
			c-0.1-0.1-0.1-0.2-0.2-0.3c-0.7-1.4-4-7.7-4.4-8.4l-2.9-5.4l-11.3-0.5L550.9,536l-27.1,2.5l-0.1,0.2c-7.5-3.8-12.8-6.6-15.1-7.9
			c-0.2-0.1-0.3-0.2-0.5-0.3c-1-0.8-2.4-1.8-4.1-3c-1.5-1.1-4.1-2.9-5.9-4.3c0-0.8,0-1.7,0-2.6l6.8-0.5l26.7,16.4v-33.1
			c3.7-5,7.7-10.2,9.1-11.8c0.9-0.7,2.6-2,6.1-4.9c4.5-3.6,9.7-7.9,9.7-7.9l2.2-1.8l11.8,24.8l4.8-35.5l2.6-19.8l-12-15.8l-6.3-11.3
			L548.8,400l-5.4,11c-0.7-0.5-1.4-1-2-1.3c-0.1-0.1-12-6.9-17.3-6.9h-1.2l9.4-8.1l-19-31.5l-5.6,8.8c-0.7-3-1.6-6.6-2.3-9.8
			l-4.4-19.7l-30.5,32.6c-1-0.1-2-0.1-2.9-0.1c-1.1,0-2,0-2.7,0.1c-2.2,0.2-4,0.8-5.6,1.7c-0.3,0.2-0.6,0.3-0.8,0.5l-0.1,0.1
			c-0.3,0.2-0.9,0.4-2.1,0.9c-0.5,0.2-1,0.4-1.5,0.7l-7.9-6.6l-11.6-1.2c-1.3,3.4-2.6,6.8-3.8,10.3c-6.9,19.8-11.6,40.6-14,62.1
			l0,0.1c-0.5,4.7-0.9,9.5-1.2,14.3l7.7,8.3l1,12.6l0.1,2.2l4.1,8.4l10,20.2l12.3,32.5l9.7-8.9l7.2,14.7l38.2,14.9l-3.8,5.3
			l7.4,16.7l9.4,21.2l7.7,3.3l-2.8,12.4l-0.3,1.3v17.1l-2.6,21.8l-0.6,4.6l3.1,25l12.4,10.3H556l-3.8-24.7l4.2-9.8
			c2.9-4,4.6-6.3,5.5-7.6c1.9-1.1,5.4-3.1,8.4-4.7l7-3.8l-1.7-7.8c5.2-1.4,7.5-4.4,8.4-7c1.2-2.3,5-9.3,7.2-13.1
			c2.4-0.9,5.9-2.2,9-3.4l6.3-2.4l1.7-19.2C617.8,587.2,619,583.3,618.1,578.6z M512.8,411.3l1-0.8c-0.2,0.7-0.4,1.6-1.8,9.8
			l-1.2,7.4c-3.3-1.9-6.6-3.7-7.6-4.2l-0.2-1.8L512.8,411.3z"/>
	</g>
	<g>
		<path class="st12" d="M976.7,416l-8.6,11.7l-6.5,1.4v-2.7l-2.2-0.1l-14.6-0.9l-16.2,16.8l8.3,3.8l0.7,17.2l-3.3,3.3l-6.9,6.9
			l-5.9,5.9l-2.4,5.4l-4.5,10.4l-6.9-9.6l-10.3,1.7l5.8,21l-13.1,14.4l-3.6,0.6l-12.8,2.1l0.8,1.7l1.3,2.8v18.2l-9.3-7.2l-1.4,3.8
			c0,0,2.1,9.3,2.4,10.3c0,0,0,0,0,0c0.3,1.1-2.4,4.4-2.4,5.5c0,0.4-1.2-0.9-2.7-2.6c-2.6-3-6.2-7.4-6.2-7.4l2.4-8.9l-10.3-15.8
			l-26.7,12.4l-10.4,4.8l-6.2-14.8l-17.8-6.3l-19.3-6.8l-3.4,19.9l-21.3-19.2l2.1,30.2l25.4,8.2l-21.3,43.3l-11,15.8l-3.7,5.4
			l-21,30.3l-13.4-42l-5.2-16.4l-8.2-26.8l-11.6,0.6l-13.4,0.7l-12.8,0.7l-11-42.6l19.5-18.2l12.1-11.3l5.8,1.7l40.8,11.8l0.2,0.1
			l0.2,0.1l2.8,0.8l19.3-3.3l0.3-1.2l2.3-9.7l-13.4-4.5l-2.8-0.9l5.2-6.4l2.6-0.3l20.3-2.1l-12.4-10.3l-1-0.8l-33.3,16.8l-7.3-2.9
			l-15.6-6.1l-4.4,8.5l-4.7,1.6l-13.3,4.4l-10.8-4.6l3.3-11.1l16-2.3l2.1-11.3l0,0l7.3-8l6.1-6.7l16.2,1.5l15.4-15.1l9.3-9.1
			l3.4-7.2l-14.7,2.1l10-18.6l-15.7,9.3l-5.4,20.1l-11.6,6.2l1.8-9.8l-10.5-0.2l-0.8,0c0,0,15.2-30.9,15.5-31.7
			c0.3-0.8,22.4-16,22.4-16l3.7,0.8l4.7,1l0.9,0.2l8,1.8l7,13.4l-1.9,2.4l-5.3,6.7l6.4,7.2l6-6l6.4-6.4l18.4-11.2l10.8-6.6l12.9,4.6
			l1-11.9l9.8-10.6l1.2,21.6l0.1,2.1l4.9,6.2l0.2-13.4l0.1-5.5l2.8-7l5.3,4.3l8.9,7.3l-3.3-12.7l-1.6-6.1l7.7-1.3l2.8-12.6l12.4-7.2
			l4.9,1.4l4.3,1.2l3.9-7.5l7.2-7.2l0.7,1l4,6.2l1.3-0.4l5.4-1.9l8.8,14.4L887,350l-11.2,9.3l-6.2,5.2l6.6-2.7l6.1-2.5h7l3-1.5
			l2.7-1.3l8,5.7l2.6-4.9l9.3,0.5l4.9,10.3l3.3,0.5l14.5,2.1l-0.8-3.9l6.2,1l29.4,6.7l0.4,2.5l0.4,2.5l0.5,2.7l3.1-0.4
			c3.8,11.1,7,22.5,9.4,34.2l-7.6,4.3L976.7,416z"/>
		<path class="st12" d="M986.2,417.2c0.9,4.3,1.7,8.7,2.4,13l-10,11.8l-8.8,2.1L986.2,417.2z"/>
		<polygon class="st12" points="869.2,567.3 855.1,555.1 853.5,558 865,572.7 872.1,579.7 872.9,572.5 868.6,568.7 		"/>
		<path class="st12" d="M887.5,561.1l-6.9,4l2.7,8.4l10,1c0,0,3.4-5.2,3.3-6.2c-0.2-1-0.3-6-0.3-6l2.9-3.8l-7.9-1.9L887.5,561.1z"/>
		<path class="st12" d="M905.8,532.5l-2-0.9l-1.6,0.5c-0.1,0.2-1.2,9.8-1.2,9.8l6.8,2.3l3.6,3.8l-2.6-7.1L905,539l0.6-1.4
			L905.8,532.5z"/>
		<polygon class="st12" points="908.4,556.1 911.3,555.9 913.3,552.6 912.4,550.6 910,550.3 909.7,547.8 906.8,545.6 906.7,546.7 
			905.2,546.8 906.7,549.7 905.4,553.8 		"/>
		<path class="st12" d="M927.4,569.1l-1.9-1.7l-6.2,2.7l2.1,0.3l3.4,1.7l-1.3,1c0,0,3.4,2.1,3.4,2.6c0,0.5,2.7,1.4,3,1.5
			c0.3,0.2,5,1,5,1s1.1,2.1,1.2,2.7c0.1,0.6,2.5,3.2,2.9,3.6c0.4,0.4,3.1,1.5,3.1,1.5s1.6-2.7,1.7-3c0.1-0.3,6.2-0.2,6.2-0.2l0.6,1
			l1.5,2.6l7,0.5l-3.7-2.7l-2.7-3.3l-1.6-2l-0.8-2.8c0,0-3.3-2.6-3.8-2.7c-0.5-0.2-10.7-4.3-10.7-4.3l-5.3,2.9l-1.3-2.9L927.4,569.1
			z"/>
		<path class="st12" d="M889.9,583.2c0,0-1-0.2-1,0c0,0.1-4.7-2.7-4.7-2.7L883,581l-4.5-0.2l-2.5-1.2l-2.1,0.2l-0.5,0.5l0.4,0.8
			l0.3,0.9l4.3,1.2l2.7,0l3.4,0.9h3.4l2.9,1.1L889.9,583.2z"/>
		<path class="st12" d="M900.2,567c0,0.2-1.3,5.4-1.2,5.6c0.1,0.2,0.3,2.4,0.3,2.4l-0.1,3.4l2.3-0.3l0.8-1.6l-0.2-2.9l1.5,2.6
			l2.9,0.1l-1.6-4.1l1-1.4l1-1.5l-1.5,0.5l-3.1,0.8l-0.3-2.2l1.5-1.3l5.2,0.8l1.8-2.3l-3,0.5l-5.7-0.3
			C901.7,565.9,900.2,566.8,900.2,567z"/>
		<path class="st12" d="M957.7,612.4c-5.9,11-12.5,21.5-19.8,31.6l-1.3-1l-3.6-11.9l-1,1.9l-2,3.7l-6.7-4.9l-10.3,1.3l-9.8,4.6
			l-3.4-1.8l-10.8,1l1.8-5.4l0.5-1.5l-1.3-9.5l-1.3-9l8.8-3.4c0,0,2.8-1,9.3-3.4l3.6-5.4l0.3-0.8l1.3-3.6c0,0,4.4,3.4,5.2,3.9
			c0.8,0.5,3.1-2.3,3.1-2.3l1-6.2l4.1,0.1l4.1,0.1l3.3,2.1l1,8.5l3.3,1.5l2.9,1.3l0.8-4.6l5-4.8c0,0,2.2,5.5,3.2,7.3
			c1,1.8,1.5,4.6,1.5,4.6s6.2,5.2,7,5.4C957.5,612.2,957.6,612.3,957.7,612.4z"/>
		<polygon class="st12" points="778.1,581.9 774.5,587.9 768.1,591 767.7,598 766.4,605 771.1,611 778.2,598.1 778.4,590.1 
			780.3,590.8 779.7,582.9 		"/>
		<polygon class="st12" points="635.9,303.4 649.8,283.9 636.9,282.8 625.5,288.5 627.1,281.3 620.4,281.8 607,276.1 627.6,267.4 
			626.1,261.7 613.7,261.7 617.3,255.5 612.7,254.5 596.7,260.1 592,267.3 583.8,279.7 574.5,272.5 561.1,275.6 559.5,278.2 
			544.6,302.4 547.9,309.8 544.4,312.3 533.5,320.4 541.7,327.7 550,327 540,335.6 545.8,339.3 560.6,340 565.8,358.9 571.9,369.1 
			572.6,370.3 569.2,397.4 573.3,407.1 576.1,413.6 585.7,424.9 594.6,406.3 598.8,403.8 608.2,398 612.5,395.4 626.2,385.7 
			614.2,373.5 621.9,362.7 627.1,356 634.8,348.8 632.8,328.9 631.9,319.6 631.7,317.9 632.8,314.2 		"/>
		<path class="st12" d="M597.9,594l-0.3,3.3l-1.1,12.7c0,0-12,4.5-12.5,4.8c-0.5,0.3-10,17.5-10,18c0,0.3-3,0.8-5.9,1.2
			c-2.7,0.4-5.3,0.7-5.3,0.7l1,4.4l1.4,6.6c0,0-10.5,5.7-10.8,6.2c-0.3,0.5-7.4,10.1-7.4,10.1l-4.8,11.3l-1,2.5l2.4,15.5h-3.3
			l-6.2-5.2l-0.5-4.1l-1.2-9.4l-0.7-6l0.4-3.3l2.7-22.5v-16.5l0-0.1l0.7-2.9l4.1-18.3l-0.1-0.1l-11.9-5.1l-7.8-17.4l-5-11.1
			l8.2-11.5l-31.2-12.2l-15.8-6.2l-1.8-3.6l-9.9-20.2l-8.6,7.9l-6.9-18.2l-10.2-20.6l-3.2-6.5l0-0.2l-1.4-16.3l-16.8-18l0-0.1
			c2.4-21.5,7.1-42.3,14-62.1l11,1.1l8.7,7.2l1.7,1.4c0,0,4.3-1.7,7.7-3.1c1.9-0.8,3.6-1.6,4-2c0,0,0.1-0.1,0.1-0.1
			c0.2-0.2,0.7-0.3,1.3-0.3c2.9-0.3,8.9,0.4,8.9,0.4l20.3-21.6c0,0,3.8,17,4.8,18.4c1,1.4,7.2,10,7.2,10l6-9.4l5.5,9.1l-13.1,11.2
			l-4.9,5.2l-8.8,9.2l2.2,16.5l3.8-1.9c0,0,9.8,5.4,14.2,7.9c1,0.6,1.8,1,2,1.2c1.2,0.9,2.4,3.3,2.4,3.3l6,3.1l-1.2-5.5l4-3.6
			L524,437l-3-5.4c0,0,0.8-4.8,1.6-9.5c0.7-4.3,1.4-8.4,1.5-8.7c0.2-0.4,8.8,3.6,12,5.4c0.6,0.3,0.9,0.6,1.1,0.8
			c0.5,0.6,1,4.6,1.2,7.8c0.2,2.2,0.3,3.9,0.3,3.9l0.9,0.6l0.6,0.4l3.7,2.2l3.9-7.9l1.8-3.6l0.9,1.6l6.7,12l9.8,12.9l-1.1,8l-1,7.4
			l-5.2-10.8l-13.9,7.7l4.1,8.8c0,0-5.2,4.2-9.6,7.9c-3,2.4-5.7,4.6-6.3,5c-1.5,1-12.9,16.5-12.9,16.5v17.5l-13.4-8.2l-19.6,1.5
			c0,0-1,15.5,0,17.5c1,2.1,11.3,8.8,13.9,10.8c0.2,0.2,0.7,0.5,1.4,0.9c4.1,2.4,15.7,8.3,23.8,12.4l2.6-3.7l1.3-0.1l17.4-1.6
			l16,9.8l7.9,0.3c0,0,3.6,6.9,4.3,8.2c0.7,1.4-0.2,5-0.2,5l12.9,1.7l8.9,1.7c0,0,7.6,5.8,9.3,6.7C609.2,581.2,597.9,594,597.9,594z
			"/>
		<polygon class="st12" points="959.1,453.9 956.9,449.4 954.3,449.6 952.3,454.5 954.8,459.3 		"/>
		<path class="st12" d="M949.3,460.7l-2.6,3.5l-6.6,6.2l-1.1,6.2c0,0-0.5,1.1-1.1,2.6c-0.6,1.3-1.3,3-2,4.5
			c-0.9,1.9-1.7,3.6-2.2,4.4c-0.1,0.2-0.2,0.3-0.3,0.4c-0.8,0.8-3.1,4.5-3.1,4.5l8.1-3.8l1.4-0.7l0.6-0.3l1-0.5l1-0.5l3.4-4.8
			l1.4-9.9l4.2-3.1l1.7-8.5l-1.4-3.7L949.3,460.7z"/>
	</g>
	<path class="st4" d="M716,513.5l-45-6.3l-17.4,18.2c0,0-0.6,32.3,0.8,32.3s40.3-2.2,41.1-0.8c0.8,1.4,19.6,78.1,19.6,78.1
		s38.6-66.5,37.5-67.6s-21-19.3-21-19.3l9.1-36.7l18.2,9.9l6.6-10.5l39.7,10.2l10.5,12.1l32.9-15.5l10.7,16.9l4.4-7.4l5.5,3.3
		l-0.7-12.9L886,514l7.7-7.4l-2.2-26.5l16.2-2.6l4.8,2.9l18-18.4l-1.5-9.2l-5.5-9.9l19.9-21.3l20.6-2.9c0,0,1.8,3.7,2.6,2.2
		c0.7-1.5,9.6-11,9.6-11l3.3,1.8l-3.3-21c0,0-7-0.7-7.4-1.8s1.5-7.4-0.7-8.1s-25-8.1-25-8.1l-0.7,4.4l-27.6-2.6l-5.2-8.8
		c0,0-4,5.1-5.1,4.4s-10.7-4.8-10.7-4.8l-14.7,4.8l-12.5,0.7l-2.9-9.6l15.1-15.8L865,347l-15.8,2.9c0,0-7.7,9.6-7.4,10.7
		c0.4,1.1-3.3,8.8-3.3,8.8l4.8,25l-18.8-9.2l-5.5,21.3L807.6,393l-3.3-6.6l-1.8,5.1l-15.8-0.7l-35.3,26.1l-12.1-0.4l-4-4.8l-0.7,9.6
		l-26.9,32.4l-15.4,1.5l-15.5,11l-3.3,10.3l10.3-5.5l19.1,1.1l47.8-14.3l19.9,32.4l-27.6-3.3l7,6.3l-4.3,13.3L716,513.5z"/>
	<path class="st2" d="M680,518.6l-10.3,17.1l6.3,9.2l26.5,0.9l14.2,55.5l21.5-31.6c0,0-16.2-19.7-16.2-20.2c0-0.6,3.3-17.7,3.3-17.7
		l-14.2-7.7l-5.3,2.2l-7.2-5.7L680,518.6z"/>
	<path class="st2" d="M839.6,408.4l-8.8-10.5l-7.7,23.2l-11.6-2.2c0,0-6.6-21-8.3-17.1c-1.7,3.9-37,22.1-37,22.1l-22.6,2.8
		L724.8,452l-19.3,8.8c0,0-22.6,2.2-18.2,3.9c4.4,1.7,12.7,0.6,12.7,0.6l61.2-17.7l22.6,43.6l-19.9,6.1l24.3,6.6l19.9,7.2l10.5,12.7
		l33.7-14.3c0,0,9.9,7.7,7.7,0c-2.2-7.7-4.4-66.8-4.4-66.8L844,428.3L839.6,408.4z"/>
	<path class="st2" d="M845,374.2l15.6,31.5c0,0,14.9,11.6,14.9,14.9c0,3.3,1.7,24.8,3.3,21c1.7-3.9,53.5-23.2,53.5-23.2l30.3-7.2
		c0,0,2.8-9.9,0.6-13.2c-2.2-3.3-6.6-14.3-6.6-14.3l-17.1-0.6c0,0,0,5-7.7,3.3c-7.7-1.7-22.1-8.3-22.1-8.3s-2.2,6.1-5,3.9
		c-2.8-2.2-10.5-5-14.3-5s-11.6,1.7-16.6,0s-12.5-0.4-12.5-0.4l-3.9-14.5c0,0,4.2-8.1,3.7-8.1c-0.6,0-11.6,8.8-11.6,8.8L845,374.2z"
		/>
	<path class="st2" d="M900.9,445.1l-25.7,13.5l-7.7,33.7c0,0,20.7-17.1,22.1-18.2s18.8-3.6,18.8-3.6l8-6.1c0,0-1.1-14.9-1.7-15.7
		c-0.6-0.8-2.2-8-2.2-8L900.9,445.1z"/>
	<path class="st4" d="M538,680.3l0.2-7l12-24.6l7.5-4.6l-0.6-14.2l9.9-5.9l11-14.7l7.7-1.8l2.8-10.3l11.4-12l-6.3-6.1l-22.1-3.3
		c0,0-1.1-9.2-1.8-9.6s-4.8-3.5-5.9-3.7c-1.1-0.2-17.5-10.9-17.5-10.9l-14,2.9l-12,17.7l11,19.7l16,8.5l-8.3,36.2l-3.9,29.1
		L538,680.3z"/>
	<path class="st2" d="M560.6,604.3c0,0,12.6-17.2,12.4-17.7c-0.2-0.6-9.7-18.7-9.7-18.7l-18-9.4l-6.6,1.8l-10.9,11.4l3.3,11.6
		l7.9,0.4l-0.4,4.6L560.6,604.3z"/>
	<polygon class="st2" points="540.6,654.3 552.7,601.3 572,583.6 592.7,584.5 582.8,594.7 581.1,605.4 570.3,607.9 564,621.7 
		555.2,626.9 554.1,639.9 	"/>
	<path class="st4" d="M555.2,447.9l-14.6,13l1.7,11.6l-27.3,18.8l-2.5,16.6l-10.5-5.5l-20.1-2.5l2.2,31.7c0,0,33.7,18.5,34.5,19.6
		l13.5,7.4l0.5,2.3l-54-22.6l-6.1-26.8l-14.6,2.8c0,0-16.6-37-17.4-37s1.9-17.4,1.9-17.4l-24.2-22.3c2.3-17,6-33.6,11.1-49.6
		l14.7,3.5l4.7,10.8l21.2-10.2l12.1,1.7l11.6-16.3l1.4,9.4l4.1,10.2l6.6,1.9l-19.6,17.4l4.7,24.6l6.9-2.5l11,4.4l1.9,5l14.6,5
		l1.1-7.7l4.1-3.3l-4.7-8.6l1.7-11l6.9,7.2l2.2,6.6c0,0,4.1,5.2,5,5.8c0.8,0.6,7.7-6.3,7.7-6.3l7.7,9.1l1.7,6.1L555.2,447.9z"/>
	<path class="st2" d="M431.7,404.8l-1.8,26.5l20.2,23.2l-1.1,17.3l22.1-4.4c0,0,17.3,5.5,17.3,3.3c0-2.2,17.3-19.9,17.3-19.9
		l-6.6-5.9l-11.4,1.8l-7.4-33.1l14.7-10.3l-4.4-0.7l-0.4-9.2l-5.1,7l-14.7-3.3l-23.5,13.2l-5.5-12.9L431.7,404.8z"/>
	<path class="st2" d="M452,482.4c0,0,9.7,27,10.8,25.1s11.9-2.5,11.9-2.5l2.2,6.6l2.8-17.4l24,4.1l4.7,3.3l2.5-12.4l25.1-17.7
		l-0.6-13.5l8-7.2l-6.9-0.8l-2.5-8.3l-8,15.5l-0.3,7.4l-15.5-6.6l-14.9,21l-28.4-5.5L452,482.4z"/>
	<path class="st4" d="M584.7,287l-9.6-5.1l-10.3,1.8l-9.9,15.8l0.7,8.1l-7.4,11.8l6.6,2.2v8.5l8.1,2.2l16.9,34.6l-4.8,26.9l8.1,19.9
		l9.9-14.3c0,0,25-11,23.9-12.1s-11.4-15.8-11.4-15.8l21-26.5l-2.2-31.3L631,301l9.2-9.2l-16.9,2.9l-2.9-9.9l-20.5-8.2l12.7-8.2
		c0,0,1.7-3.1,1.1-3.2c-0.6-0.1-9.8,0.6-9.8,0.6l2.9-4.3l-8.8,2L584.7,287z"/>
	<path class="st2" d="M584.5,294.2l-10.5-3.9l-7.7,9.9l1.1,11.4l-3.3,5.5l5.9,1.8l-1.1,5.1l4,5.1l13.2,39l-2.9,21.3l0.4,7
		c0,0,6.3-8.1,7-9.2c0.7-1.1,8.1-1.1,8.1-1.1v-15.1l19.9-27.6l-3.7-29.1l7-11l3.3-2.6l-5.5-0.4l-6.3-9.2l-16.4-7.4l-0.2-7.4
		L584.5,294.2z"/>
	<path class="st4" d="M954.5,618.2c-4.3,7.6-9,15-14,22.1l-6-14.7l-6.6,4.6l-4.1-2.4h-10.5l-8.1,3.5l-2.9-2.9l-7,2.6l2.8-4.8
		l0.4-12.1l15.3-5.9l1.5-4.4l5.5,0.2l1.8-3.1l5.9-2.9l4.1,7l8.8,4.4l2-2.8l3.3,6.1L954.5,618.2z"/>
	<polygon class="st2" points="943.2,615.4 933.5,610.2 928.2,605.2 926.2,609.2 920.7,608.8 920.1,611.7 906.8,613.7 902.2,622.1 
		908.8,623.1 910.2,625.3 914.8,623.4 924.9,622.5 929.3,626.2 936.8,623.1 941,633.1 950.4,619.3 	"/>
	<path class="st6" d="M460,65.5c-7-6-17.8-6.7-26.3-0.8c-1.6,1.1-3,2.4-4.2,3.7c-11.2-5.8-26.5-4.2-37.8,5.7c-1,0.9-2,1.8-2.9,2.8
		c-11.7-7.3-29.1-4.7-40.8,8.1c-10.4,11.3-12.5,26.6-6.9,37.6c0,0.1-0.1,0.1-0.1,0.1c-8.2,10.7-8,24.6-1.1,33.5
		c-1.3,1.4-2.5,3-3.6,4.7c-7.1,11.5-5.1,25.6,3.4,33.8C366.7,141.2,408.4,96.3,460,65.5z"/>
	<path class="st6" d="M280.2,526.1c-8.2,4.1-13.2,13.7-11.1,23.8c0.4,1.9,1,3.7,1.8,5.3c-9.8,8-14.3,22.7-9.6,37
		c0.4,1.3,0.9,2.6,1.5,3.8c-11.3,7.9-15.7,25-8.6,40.7c6.3,14,19.6,22,31.8,21.1c0,0.1,0.1,0.1,0.1,0.2c6.6,11.7,19.5,17,30.4,14.1
		c0.8,1.8,1.8,3.5,2.9,5.2c7.8,11.1,21.5,14.8,32.5,10.2C313.2,641.6,288.3,585.6,280.2,526.1z"/>
	<path class="st6" d="M814.5,901c4.8,6.8,14.2,10,23.1,6.7c1.7-0.6,3.2-1.4,4.6-2.4c8.6,7.7,22.5,9.7,34.8,3.4
		c1.1-0.6,2.2-1.2,3.2-1.9c8.8,9.1,24.8,10.7,38,2c11.8-7.7,17.1-20.8,14.6-31.7c0,0,0.1-0.1,0.1-0.1c9.7-7.6,12.7-20,8.5-29.4
		c1.5-1,2.9-2.1,4.3-3.4c8.9-8.6,10.3-21.5,4.6-30.8C914.2,854.9,867.2,885.3,814.5,901z"/>
	<path class="st6" d="M1180.6,539.2c8.3-1.1,15.4-8,16.6-17.4c0.2-1.8,0.2-3.5,0-5.2c10.8-4.1,19.1-15.4,19.2-29.2
		c0-1.2,0-2.5-0.1-3.7c12.1-3.5,21-17,19.5-32.7c-1.3-14-10.4-24.8-21.3-27.7c0-0.1,0-0.1,0-0.2c-2.3-12.1-11.8-20.5-22.1-21.2
		c-0.1-1.8-0.5-3.6-1-5.3c-3.5-11.9-14.3-19.1-25.1-18.4C1186.3,429.5,1191.2,485.3,1180.6,539.2z"/>
	<path class="st6" d="M1045.2,262.1c8.8-5.5,12.9-17.3,8.6-28.2c-1.1-2.9-2.7-5.4-4.6-7.5c12.3-7.8,16.8-25.4,8.8-40.7
		c-0.9-1.7-2-3.4-3.1-4.9c9.5-9.6,10.9-26.8,1.5-41c-9.2-13.9-25.2-19.4-37.7-14.7c-1-2.1-2.4-4.2-3.9-6.1c-8.3-10-21.3-13.2-31.3-9
		c-1.3-2.2-2.9-4.2-4.7-6.1c-11.5-11.5-29.1-11.3-39.1-0.8C989.2,145,1025.8,200.1,1045.2,262.1z"/>
	<circle class="st16" cx="1137.3" cy="240.4" r="51.9"/>
</g>
</svg>
